<svg width="32" height="32" viewBox="0 0 32 32" fill="none" xmlns="http://www.w3.org/2000/svg">
<path d="M13.7266 29.6488C15.9001 29.6488 17.6641 27.8568 17.6641 25.6488V21.6488H13.7266C11.5531 21.6488 9.78906 23.4408 9.78906 25.6488C9.78906 27.8568 11.5531 29.6488 13.7266 29.6488Z" fill="#0ACF83" />
<path d="M9.78906 17.6488C9.78906 15.4408 11.5531 13.6488 13.7266 13.6488H17.6641V21.6488H13.7266C11.5531 21.6488 9.78906 19.8568 9.78906 17.6488Z" fill="#A259FF" />
<path d="M9.78906 9.64881C9.78906 7.4408 11.5531 5.6488 13.7266 5.6488H17.6641V13.6488H13.7266C11.5531 13.6488 9.78906 11.8568 9.78906 9.64881Z" fill="#F24E1E" />
<path d="M17.6641 5.6488H21.6016C23.7751 5.6488 25.5391 7.4408 25.5391 9.64881C25.5391 11.8568 23.7751 13.6488 21.6016 13.6488H17.6641V5.6488Z" fill="#FF7262" /> 
<path d="M25.5391 17.6488C25.5391 19.8568 23.7751 21.6488 21.6016 21.6488C19.4281 21.6488 17.6641 19.8568 17.6641 17.6488C17.6641 15.4408 19.4281 13.6488 21.6016 13.6488C23.7751 13.6488 25.5391 15.4408 25.5391 17.6488Z" fill="#1ABCFE" />
</svg>