        <svg id="Layer_1" class="h-8 hover:shadow-md hover:shadow-cyan-500" data-name="Layer 1"
            xmlns="http://www.w3.org/2000/svg" viewBox="0 0 64 64">
            <title>logo</title>
            <path class="cls-1"
                d="M54.76,48.76l-8-8A17.42,17.42,0,0,0,38.59,8h-18l8.49,8.5h9.49a8.93,8.93,0,0,1,0,17.85H25.41a4.25,4.25,0,0,0,0,8.49H36.83L48.76,54.76a4.24,4.24,0,0,0,6-6Z"
                fill="#9ca3af" />
            <path class="cls-2"
                d="M34.9,47.51H25.41a8.93,8.93,0,0,1,0-17.85H38.59a4.25,4.25,0,0,0,0-8.49H27.17L15.24,9.24a4.24,4.24,0,0,0-6,6l8,8A17.42,17.42,0,0,0,25.41,56h18Z"
                fill="#0591b2" />
        </svg>