<svg width="258" height="287" viewBox="0 0 258 287" fill="none" xmlns="http://www.w3.org/2000/svg">
<path fill-rule="evenodd" clip-rule="evenodd" d="M123.431 284.426C99.0405 283.941 72.473 287.847 52.2627 273.098C32.2686 258.507 24.7862 231.094 16.7094 206.543C9.65461 185.099 10.5821 162.67 8.48482 140.026C6.14552 114.77 -4.32133 89.2454 3.63277 65.3593C11.9549 40.3681 30.3915 19.0105 52.5926 7.57112C74.3007 -3.61417 99.4592 1.49172 123.431 3.63209C145.76 5.62568 167.398 9.68185 187.813 19.6444C209.789 30.3685 233.699 41.2426 246.17 63.5269C258.696 85.91 257.676 114.014 255.183 140.026C252.848 164.386 241.967 185.73 232.334 207.902C221.866 231.996 216.788 261.436 196.127 275.954C175.347 290.556 148.222 284.918 123.431 284.426Z" stroke="#0891B2"/>
</svg>
