      <svg width="766" height="768"
          viewBox="0 0 766 768" fill="none" xmlns="http://www.w3.org/2000/svg">
          <path fill-rule="evenodd" clip-rule="evenodd"
              d="M62.0716 50.0139C92.6259 20.7761 136.005 -8.50002 176.63 3.15786C217.75 14.9578 221.022 73.1895 250.559 104.103C276.532 131.287 319.661 138.459 337.515 171.543C358.594 210.601 376.185 260.35 356.328 300.088C336.504 339.759 284.94 349.984 242.275 362.135C208.224 371.834 174.052 363.449 138.683 362.077C99.973 360.575 54.985 378.954 25.6216 353.731C-3.73166 328.517 1.17708 282.019 0.435982 243.325C-0.181457 211.087 11.9469 182.101 21.7458 151.369C33.0674 115.86 35.1305 75.7943 62.0716 50.0139Z"
              fill="#0891B2" />
      </svg>