<svg width="873" eight="867"
      viewBox="0 0 873 867" fill="none" xmlns="http://www.w3.org/2000/svg">
      <path fill-rule="evenodd" clip-rule="evenodd"
          d="M337.229 98.8134C361.378 133.53 383.577 180.922 365.764 219.249C347.734 258.044 289.699 252.252 254.581 276.641C223.701 298.087 209.931 339.583 174.48 352.094C132.626 366.865 80.7521 376.533 44.5717 350.757C8.45292 325.025 6.34273 272.499 0.950199 228.467C-3.35365 193.324 10.2261 160.864 17.063 126.136C24.5458 88.1258 13.3614 40.8329 42.83 15.7333C72.2884 -9.35756 117.464 2.69816 155.806 7.96296C187.75 12.3493 214.505 28.8233 243.348 43.2667C276.673 59.9547 315.935 68.2024 337.229 98.8134Z"
          fill="#0891B2" />
      </svg>